<svg xmlns="http://www.w3.org/2000/svg" viewBox="0 0 64 64">
  <rect width="64" height="64" rx="15" fill="#fffaf1"/>
  <circle cx="32" cy="32" r="27" fill="none" stroke="#2b2825" stroke-width="2"/>
  <circle cx="32" cy="32" r="22" fill="none" stroke="#a9472d" stroke-width="1.4" stroke-dasharray="2 3"/>
  <g fill="#a9472d" fill-opacity=".08" stroke="#a9472d" stroke-width="1.6" stroke-linejoin="round">
    <path d="M32 32c-8-5-8-14 0-21 8 7 8 16 0 21Z"/>
    <path d="M32 32c-8-5-8-14 0-21 8 7 8 16 0 21Z" transform="rotate(60 32 32)"/>
    <path d="M32 32c-8-5-8-14 0-21 8 7 8 16 0 21Z" transform="rotate(120 32 32)"/>
    <path d="M32 32c-8-5-8-14 0-21 8 7 8 16 0 21Z" transform="rotate(180 32 32)"/>
    <path d="M32 32c-8-5-8-14 0-21 8 7 8 16 0 21Z" transform="rotate(240 32 32)"/>
    <path d="M32 32c-8-5-8-14 0-21 8 7 8 16 0 21Z" transform="rotate(300 32 32)"/>
  </g>
  <circle cx="32" cy="32" r="6" fill="#fffaf1" stroke="#2b2825" stroke-width="1.4"/>
  <path d="m32 28 4 4-4 4-4-4 4-4Z" fill="#a9472d"/>
</svg>
