<svg xmlns="http://www.w3.org/2000/svg" viewBox="0 0 64 64">
  <rect width="64" height="64" rx="14" fill="#1f1c19"/>
  <path d="M32 31c-7-3.5-9.5-11.1-5.5-16.8A15 15 0 0 1 32 9a15 15 0 0 1 5.5 5.2C41.5 19.9 39 27.5 32 31Z" fill="none" stroke="#f8f0e4" stroke-width="2.4" stroke-linejoin="round"/>
  <path d="M33 32c3.5-7 11.1-9.5 16.8-5.5A15 15 0 0 1 55 32a15 15 0 0 1-5.2 5.5C44.1 41.5 36.5 39 33 32Z" fill="none" stroke="#f8f0e4" stroke-width="2.4" stroke-linejoin="round"/>
  <path d="M32 33c7 3.5 9.5 11.1 5.5 16.8A15 15 0 0 1 32 55a15 15 0 0 1-5.5-5.2C22.5 44.1 25 36.5 32 33Z" fill="none" stroke="#f8f0e4" stroke-width="2.4" stroke-linejoin="round"/>
  <path d="M31 32c-3.5 7-11.1 9.5-16.8 5.5A15 15 0 0 1 9 32a15 15 0 0 1 5.2-5.5C19.9 22.5 27.5 25 31 32Z" fill="none" stroke="#f8f0e4" stroke-width="2.4" stroke-linejoin="round"/>
  <path d="m32 25 7 7-7 7-7-7 7-7Z" fill="#b5482d" stroke="#1f1c19" stroke-width="2"/>
  <circle cx="32" cy="32" r="2.2" fill="#f8f0e4"/>
</svg>
