<svg xmlns="http://www.w3.org/2000/svg" viewBox="0 0 72 72" role="img" aria-labelledby="logo-title logo-description">
  <title id="logo-title">Lei Zhi Creative Library</title>
  <desc id="logo-description">A woven lace knot inside a tailored fabric label.</desc>
  <path d="M14 5h34l19 19v34a9 9 0 0 1-9 9H14a9 9 0 0 1-9-9V14a9 9 0 0 1 9-9Z" fill="#1f1c19"/>
  <path d="M48 5v11a8 8 0 0 0 8 8h11L48 5Z" fill="#b5482d"/>
  <path d="M36 35c-8-3.8-11.2-12.6-6.5-19.1A17.7 17.7 0 0 1 36 10a17.7 17.7 0 0 1 6.5 5.9C47.2 22.4 44 31.2 36 35Z" fill="none" stroke="#f8f0e4" stroke-width="2.2" stroke-linejoin="round"/>
  <path d="M37 36c3.8-8 12.6-11.2 19.1-6.5A17.7 17.7 0 0 1 62 36a17.7 17.7 0 0 1-5.9 6.5C49.6 47.2 40.8 44 37 36Z" fill="none" stroke="#f8f0e4" stroke-width="2.2" stroke-linejoin="round"/>
  <path d="M36 37c8 3.8 11.2 12.6 6.5 19.1A17.7 17.7 0 0 1 36 62a17.7 17.7 0 0 1-6.5-5.9C24.8 49.6 28 40.8 36 37Z" fill="none" stroke="#f8f0e4" stroke-width="2.2" stroke-linejoin="round"/>
  <path d="M35 36c-3.8 8-12.6 11.2-19.1 6.5A17.7 17.7 0 0 1 10 36a17.7 17.7 0 0 1 5.9-6.5C22.4 24.8 31.2 28 35 36Z" fill="none" stroke="#f8f0e4" stroke-width="2.2" stroke-linejoin="round"/>
  <path d="m36 29 7 7-7 7-7-7 7-7Z" fill="#b5482d" stroke="#1f1c19" stroke-width="2"/>
  <circle cx="36" cy="36" r="2.4" fill="#f8f0e4"/>
</svg>
