<svg xmlns="http://www.w3.org/2000/svg" viewBox="0 0 72 72" role="img" aria-labelledby="title description">
  <title id="title">蕾智创库标志</title>
  <desc id="description">由蕾丝花瓣、织纹针脚和智能节点组成的圆形标志</desc>
  <circle cx="36" cy="36" r="32" fill="#fffaf1" stroke="#2b2825" stroke-width="1.4"/>
  <circle cx="36" cy="36" r="27.5" fill="none" stroke="#a9472d" stroke-width="1" stroke-dasharray="1.2 3.4" stroke-linecap="round"/>
  <g fill="#a9472d" fill-opacity=".055" stroke="#a9472d" stroke-width="1.25" stroke-linejoin="round">
    <path d="M36 36C27 31 26 19 36 11c10 8 9 20 0 25Z"/>
    <path d="M36 36C27 31 26 19 36 11c10 8 9 20 0 25Z" transform="rotate(60 36 36)"/>
    <path d="M36 36C27 31 26 19 36 11c10 8 9 20 0 25Z" transform="rotate(120 36 36)"/>
    <path d="M36 36C27 31 26 19 36 11c10 8 9 20 0 25Z" transform="rotate(180 36 36)"/>
    <path d="M36 36C27 31 26 19 36 11c10 8 9 20 0 25Z" transform="rotate(240 36 36)"/>
    <path d="M36 36C27 31 26 19 36 11c10 8 9 20 0 25Z" transform="rotate(300 36 36)"/>
  </g>
  <g fill="none" stroke="#2b2825" stroke-width="1" stroke-linecap="round">
    <path d="M36 36 18.5 26M36 36l17.5-10M36 36v20" opacity=".58"/>
  </g>
  <g fill="#fffaf1" stroke="#2b2825" stroke-width="1.2">
    <circle cx="18.5" cy="26" r="2.1"/>
    <circle cx="53.5" cy="26" r="2.1"/>
    <circle cx="36" cy="56" r="2.1"/>
  </g>
  <circle cx="36" cy="36" r="6.2" fill="#fffaf1" stroke="#2b2825" stroke-width="1.2"/>
  <path d="m36 31.8 4.2 4.2-4.2 4.2-4.2-4.2 4.2-4.2Z" fill="#a9472d"/>
</svg>
